<svg width="25" height="24" viewBox="0 0 25 24" fill="none" xmlns="http://www.w3.org/2000/svg">
<g clip-path="url(#clip0_184_47)">
<path d="M12.8428 7.50973C14.3578 7.68183 15.7916 8.28531 16.9736 9.24844C18.1557 10.2116 19.0363 11.4939 19.5109 12.9429L20.4326 10.1881C20.4496 10.1351 20.477 10.0859 20.5132 10.0436C20.5493 10.0012 20.5936 9.96643 20.6433 9.94127C20.693 9.91612 20.7472 9.90108 20.8027 9.89702C20.8583 9.89297 20.9141 9.89998 20.9669 9.91765C21.0198 9.93532 21.0686 9.9633 21.1105 9.99997C21.1524 10.0366 21.1867 10.0813 21.2112 10.1313C21.2358 10.1813 21.2502 10.2356 21.2536 10.2912C21.257 10.3468 21.2493 10.4026 21.231 10.4552L19.9648 14.2398C19.917 14.3822 19.8147 14.4998 19.6803 14.5668C19.5459 14.6338 19.3904 14.6447 19.248 14.5973L15.4634 13.3311C15.4108 13.3137 15.362 13.2861 15.3201 13.2499C15.2781 13.2137 15.2437 13.1695 15.2188 13.1199C15.194 13.0704 15.1791 13.0164 15.1752 12.9611C15.1713 12.9058 15.1783 12.8502 15.1959 12.7976C15.2135 12.745 15.2413 12.6964 15.2777 12.6546C15.3142 12.6128 15.3585 12.5786 15.4082 12.554C15.4578 12.5294 15.5119 12.5148 15.5672 12.5111C15.6226 12.5074 15.6781 12.5147 15.7306 12.5326L18.8181 13.5655C18.3875 11.9662 17.4123 10.5672 16.0608 9.60976C14.7092 8.65231 13.066 8.19639 11.4144 8.32059C9.76271 8.4448 8.20615 9.14134 7.013 10.2901C5.81985 11.4389 5.06489 12.968 4.87825 14.6138C4.87202 14.6687 4.85504 14.7219 4.82826 14.7703C4.80148 14.8186 4.76544 14.8613 4.7222 14.8957C4.67895 14.9301 4.62934 14.9557 4.5762 14.971C4.52306 14.9863 4.46744 14.9909 4.41251 14.9847C4.35757 14.9785 4.3044 14.9615 4.25603 14.9347C4.20766 14.9079 4.16503 14.8719 4.13059 14.8286C4.09615 14.7854 4.07056 14.7358 4.0553 14.6826C4.04003 14.6295 4.03537 14.5739 4.0416 14.5189C4.15926 13.4808 4.48025 12.476 4.98623 11.562C5.49221 10.6479 6.17328 9.84241 6.99055 9.19154C7.80782 8.54068 8.74528 8.05716 9.74941 7.76859C10.7535 7.48002 11.8047 7.39206 12.8428 7.50973Z" fill="#6B7280"/>
</g>
<path d="M6.68114 14.8234V14.0409H8.45372V20.8577H7.58629V14.8234H6.68114ZM9.92752 17.3786C9.92752 16.2974 10.1035 15.4552 10.4555 14.8517C10.8075 14.242 11.4235 13.9372 12.3035 13.9372C13.1772 13.9372 13.7901 14.242 14.1421 14.8517C14.4941 15.4552 14.6701 16.2974 14.6701 17.3786C14.6701 18.4786 14.4941 19.3334 14.1421 19.9432C13.7901 20.5529 13.1772 20.8577 12.3035 20.8577C11.4235 20.8577 10.8075 20.5529 10.4555 19.9432C10.1035 19.3334 9.92752 18.4786 9.92752 17.3786ZM13.8215 17.3786C13.8215 16.8317 13.7838 16.3697 13.7084 15.9926C13.6392 15.6092 13.4915 15.3012 13.2652 15.0686C13.0452 14.836 12.7247 14.7197 12.3035 14.7197C11.8761 14.7197 11.5492 14.836 11.3229 15.0686C11.1029 15.3012 10.9552 15.6092 10.8798 15.9926C10.8107 16.3697 10.7761 16.8317 10.7761 17.3786C10.7761 17.9443 10.8107 18.4189 10.8798 18.8023C10.9552 19.1857 11.1029 19.4937 11.3229 19.7263C11.5492 19.9589 11.8761 20.0752 12.3035 20.0752C12.7247 20.0752 13.0452 19.9589 13.2652 19.7263C13.4915 19.4937 13.6392 19.1857 13.7084 18.8023C13.7838 18.4189 13.8215 17.9443 13.8215 17.3786Z" fill="#6B7280"/>
<defs>
<clipPath id="clip0_184_47">
<rect width="17.1429" height="17.1429" fill="white" transform="translate(15.692 0.572006) rotate(60)"/>
</clipPath>
</defs>
</svg>
