<svg width="25" height="24" viewBox="0 0 25 24" fill="none" xmlns="http://www.w3.org/2000/svg">
<g clip-path="url(#clip0_184_39)">
<path d="M12.1572 7.50973C10.6422 7.68183 9.20843 8.28531 8.02638 9.24844C6.84433 10.2116 5.96367 11.4939 5.48909 12.9429L4.56744 10.1881C4.5504 10.1351 4.52299 10.0859 4.48683 10.0436C4.45066 10.0012 4.40644 9.96643 4.35674 9.94127C4.30703 9.91612 4.25283 9.90108 4.19727 9.89702C4.14171 9.89297 4.0859 9.89998 4.03307 9.91765C3.98024 9.93532 3.93145 9.9633 3.88951 9.99997C3.84757 10.0366 3.81333 10.0813 3.78876 10.1313C3.7642 10.1813 3.7498 10.2356 3.7464 10.2912C3.74301 10.3468 3.75068 10.4026 3.76898 10.4552L5.03517 14.2398C5.08298 14.3822 5.1853 14.4998 5.31969 14.5668C5.45407 14.6338 5.60955 14.6447 5.75201 14.5973L9.53657 13.3311C9.58924 13.3137 9.63796 13.2861 9.67993 13.2499C9.72191 13.2137 9.75631 13.1695 9.78117 13.1199C9.80603 13.0704 9.82085 13.0164 9.82478 12.9611C9.82872 12.9058 9.82169 12.8502 9.80409 12.7976C9.7865 12.745 9.75869 12.6964 9.72227 12.6546C9.68584 12.6128 9.64152 12.5786 9.59184 12.554C9.54215 12.5294 9.4881 12.5148 9.43277 12.5111C9.37744 12.5074 9.32193 12.5147 9.26943 12.5326L6.18188 13.5655C6.61254 11.9662 7.5877 10.5672 8.93923 9.60976C10.2908 8.65231 11.934 8.19639 13.5856 8.32059C15.2373 8.4448 16.7938 9.14134 17.987 10.2901C19.1801 11.4389 19.9351 12.968 20.1217 14.6138C20.128 14.6687 20.145 14.7219 20.1717 14.7703C20.1985 14.8186 20.2346 14.8613 20.2778 14.8957C20.3211 14.9301 20.3707 14.9557 20.4238 14.971C20.4769 14.9863 20.5326 14.9909 20.5875 14.9847C20.6424 14.9785 20.6956 14.9615 20.744 14.9347C20.7923 14.9079 20.835 14.8719 20.8694 14.8286C20.9038 14.7854 20.9294 14.7358 20.9447 14.6826C20.96 14.6295 20.9646 14.5739 20.9584 14.5189C20.8407 13.4808 20.5198 12.476 20.0138 11.562C19.5078 10.6479 18.8267 9.84241 18.0095 9.19154C17.1922 8.54068 16.2547 8.05716 15.2506 7.76859C14.2465 7.48002 13.1953 7.39206 12.1572 7.50973Z" fill="#6B7280"/>
</g>
<path d="M9.7257 14.8234V14.0409H11.4983V20.8577H10.6308V14.8234H9.7257ZM12.9721 17.3786C12.9721 16.2974 13.1481 15.4552 13.5001 14.8517C13.8521 14.242 14.4681 13.9372 15.3481 13.9372C16.2218 13.9372 16.8346 14.242 17.1866 14.8517C17.5386 15.4552 17.7146 16.2974 17.7146 17.3786C17.7146 18.4786 17.5386 19.3334 17.1866 19.9432C16.8346 20.5529 16.2218 20.8577 15.3481 20.8577C14.4681 20.8577 13.8521 20.5529 13.5001 19.9432C13.1481 19.3334 12.9721 18.4786 12.9721 17.3786ZM16.8661 17.3786C16.8661 16.8317 16.8284 16.3697 16.7529 15.9926C16.6838 15.6092 16.5361 15.3012 16.3098 15.0686C16.0898 14.836 15.7692 14.7197 15.3481 14.7197C14.9206 14.7197 14.5938 14.836 14.3675 15.0686C14.1475 15.3012 13.9998 15.6092 13.9244 15.9926C13.8552 16.3697 13.8206 16.8317 13.8206 17.3786C13.8206 17.9443 13.8552 18.4189 13.9244 18.8023C13.9998 19.1857 14.1475 19.4937 14.3675 19.7263C14.5938 19.9589 14.9206 20.0752 15.3481 20.0752C15.7692 20.0752 16.0898 19.9589 16.3098 19.7263C16.5361 19.4937 16.6838 19.1857 16.7529 18.8023C16.8284 18.4189 16.8661 17.9443 16.8661 17.3786Z" fill="#6B7280"/>
<defs>
<clipPath id="clip0_184_39">
<rect width="17.1429" height="17.1429" fill="white" transform="matrix(-0.5 0.866025 0.866025 0.5 9.30798 0.572006)"/>
</clipPath>
</defs>
</svg>
